<?xml version="1.0" encoding="utf-8"?>
<!-- Generator: Adobe Illustrator 17.0.0, SVG Export Plug-In . SVG Version: 6.00 Build 0)  -->
<!DOCTYPE svg PUBLIC "-//W3C//DTD SVG 1.1//EN" "http://www.w3.org/Graphics/SVG/1.1/DTD/svg11.dtd">
<svg version="1.1" id="Слой_1" xmlns="http://www.w3.org/2000/svg" xmlns:xlink="http://www.w3.org/1999/xlink" x="0px" y="0px"
	 width="120px" height="96px" viewBox="0 0 120 96" enable-background="new 0 0 120 96" xml:space="preserve">
<g>
	<path fill="#E6E6E6" d="M3,95.5c-1.378,0-2.5-1.121-2.5-2.5V3c0-1.378,1.122-2.5,2.5-2.5h114c1.379,0,2.5,1.122,2.5,2.5v90
		c0,1.379-1.121,2.5-2.5,2.5H3z"/>
	<path fill="#BFBFBF" d="M117,1c1.103,0,2,0.897,2,2v90c0,1.103-0.897,2-2,2H3c-1.103,0-2-0.897-2-2V3c0-1.103,0.897-2,2-2H117
		 M117,0H3C1.343,0,0,1.343,0,3v90c0,1.657,1.343,3,3,3h114c1.657,0,3-1.343,3-3V3C120,1.343,118.657,0,117,0L117,0z"/>
</g>
<path fill="#BFBFBF" d="M66.137,46.13h-4.771v-4.767c0-0.755-0.609-1.366-1.364-1.366s-1.363,0.612-1.363,1.367v4.77h-4.774
	c-0.755,0-1.368,0.612-1.368,1.367c0,0.377,0.152,0.722,0.399,0.97c0.247,0.247,0.588,0.404,0.965,0.404h4.777v4.763
	c0,0.377,0.15,0.719,0.397,0.966c0.247,0.247,0.587,0.4,0.965,0.4c0.754,0,1.365-0.612,1.365-1.366v-4.763h4.771
	c0.755,0,1.366-0.617,1.366-1.372C67.503,46.746,66.892,46.13,66.137,46.13z"/>
</svg>
