<?xml version="1.0" encoding="utf-8"?>
<!-- Generator: Adobe Illustrator 17.0.0, SVG Export Plug-In . SVG Version: 6.00 Build 0)  -->
<!DOCTYPE svg PUBLIC "-//W3C//DTD SVG 1.1//EN" "http://www.w3.org/Graphics/SVG/1.1/DTD/svg11.dtd">
<svg version="1.1" id="Слой_1" xmlns="http://www.w3.org/2000/svg" xmlns:xlink="http://www.w3.org/1999/xlink" x="0px" y="0px"
	 width="30px" height="30px" viewBox="0 0 30 30" enable-background="new 0 0 30 30" xml:space="preserve">
<g>
	<g>
		<path fill="#FFFFFF" d="M23.989,7.011c-4.681-4.681-12.298-4.681-16.979,0s-4.681,12.297,0,16.979l2.603,1.978
			c1.832,1.031,3.854,1.533,5.865,1.533c3.116,0,6.205-1.205,8.51-3.51C28.67,19.308,28.67,11.692,23.989,7.011z M22.991,22.99
			c-3.348,3.348-8.564,4.066-12.684,1.746L8.009,22.99c-4.13-4.13-4.13-10.85,0-14.981c4.131-4.131,10.851-4.13,14.981,0
			C27.121,12.14,27.121,18.86,22.991,22.99z M19.75,11.481c-0.276-0.276-0.723-0.276-0.999,0L15.5,14.732l-3.251-3.251
			c-0.276-0.276-0.723-0.276-0.999,0s-0.276,0.723,0,0.999l3.251,3.251l-3.251,3.25c-0.276,0.276-0.276,0.723,0,0.999
			c0.138,0.138,0.318,0.207,0.499,0.207s0.361-0.069,0.499-0.207l3.251-3.251l3.251,3.251c0.138,0.138,0.318,0.207,0.499,0.207
			s0.361-0.069,0.499-0.207c0.276-0.276,0.276-0.723,0-0.999l-3.251-3.251l3.251-3.251C20.025,12.204,20.025,11.756,19.75,11.481z"
			/>
	</g>
</g>
</svg>
