<?xml version="1.0" encoding="utf-8"?>
<!-- Generator: Adobe Illustrator 17.0.0, SVG Export Plug-In . SVG Version: 6.00 Build 0)  -->
<!DOCTYPE svg PUBLIC "-//W3C//DTD SVG 1.1//EN" "http://www.w3.org/Graphics/SVG/1.1/DTD/svg11.dtd">
<svg version="1.1" id="Слой_1" xmlns="http://www.w3.org/2000/svg" xmlns:xlink="http://www.w3.org/1999/xlink" x="0px" y="0px"
	 width="90px" height="72px" viewBox="0 0 90 72" enable-background="new 0 0 90 72" xml:space="preserve">
<rect fill="#E6E6E6" width="90" height="72"/>
<g>
	<g>
		<path fill-rule="evenodd" clip-rule="evenodd" fill="#BFBFBF" d="M45,18.5c-9.665,0-17.5,7.835-17.5,17.5
			c0,9.665,7.835,17.5,17.5,17.5S62.5,45.665,62.5,36C62.5,26.335,54.665,18.5,45,18.5z M29.75,36.018
			c0-8.432,6.835-15.267,15.267-15.267c3.715,0,7.118,1.329,9.765,3.535L33.285,45.783C31.08,43.136,29.75,39.733,29.75,36.018z
			 M45.018,51.285c-3.909,0-7.464-1.482-10.164-3.898l21.534-21.534c2.416,2.701,3.898,6.255,3.898,10.164
			C60.285,44.45,53.45,51.285,45.018,51.285z"/>
	</g>
</g>
</svg>
