<?xml version="1.0" encoding="utf-8"?>
<!-- Generator: Adobe Illustrator 17.0.0, SVG Export Plug-In . SVG Version: 6.00 Build 0)  -->
<!DOCTYPE svg PUBLIC "-//W3C//DTD SVG 1.1//EN" "http://www.w3.org/Graphics/SVG/1.1/DTD/svg11.dtd">
<svg version="1.1" id="Слой_1" xmlns="http://www.w3.org/2000/svg" xmlns:xlink="http://www.w3.org/1999/xlink" x="0px" y="0px"
	 width="30px" height="30px" viewBox="0 0 30 30" enable-background="new 0 0 30 30" xml:space="preserve">
<g>
	<g>
		<path fill="#FFFFFF" d="M23.989,7.011c-4.682-4.681-12.298-4.681-16.979,0s-4.681,12.297,0,16.979l2.603,1.978
			c1.832,1.031,3.854,1.533,5.865,1.533c3.116,0,6.205-1.205,8.51-3.51C28.67,19.308,28.67,11.692,23.989,7.011z M22.99,22.99
			c-3.347,3.348-8.563,4.066-12.683,1.746L8.009,22.99c-4.13-4.13-4.13-10.85,0-14.981c4.13-4.13,10.851-4.131,14.981,0
			S27.12,18.86,22.99,22.99z M20.804,15.024h-4.598v-4.597c0-0.39-0.316-0.706-0.706-0.706s-0.706,0.316-0.706,0.706v4.598h-4.598
			c-0.39,0-0.706,0.316-0.706,0.706s0.316,0.706,0.706,0.706h4.598v4.598c0,0.39,0.316,0.706,0.706,0.706s0.706-0.316,0.706-0.706
			v-4.598h4.598c0.39,0,0.706-0.316,0.706-0.706S21.194,15.024,20.804,15.024z"/>
	</g>
</g>
</svg>
