<?xml version="1.0" encoding="utf-8"?>
<!-- Generator: Adobe Illustrator 17.0.0, SVG Export Plug-In . SVG Version: 6.00 Build 0)  -->
<!DOCTYPE svg PUBLIC "-//W3C//DTD SVG 1.1//EN" "http://www.w3.org/Graphics/SVG/1.1/DTD/svg11.dtd">
<svg version="1.1" id="Слой_1" xmlns="http://www.w3.org/2000/svg" xmlns:xlink="http://www.w3.org/1999/xlink" x="0px" y="0px"
	 width="18px" height="18px" viewBox="0 0 18 18" enable-background="new 0 0 18 18" xml:space="preserve">
<path fill-rule="evenodd" clip-rule="evenodd" fill="#FFFFFF" stroke="#333333" stroke-miterlimit="10" d="M9,1c4.418,0,8,3.582,8,8
	s-3.582,8-8,8c-4.418,0-8-3.582-8-8S4.582,1,9,1z"/>
<g>
	<g>
		<path fill="#333333" d="M9.738,9.161L12.18,6.72c0.207-0.207,0.207-0.543,0-0.75c-0.207-0.207-0.543-0.207-0.75,0L8.988,8.411
			L6.547,5.97c-0.207-0.207-0.543-0.207-0.75,0s-0.207,0.543,0,0.75l2.441,2.441l-2.441,2.441c-0.207,0.207-0.207,0.543,0,0.75
			c0.104,0.104,0.239,0.155,0.375,0.155c0.136,0,0.271-0.052,0.375-0.155l2.441-2.441l2.441,2.441
			c0.104,0.104,0.239,0.155,0.375,0.155c0.136,0,0.271-0.052,0.375-0.155c0.207-0.207,0.207-0.543,0-0.75L9.738,9.161z"/>
	</g>
</g>
</svg>
