<?xml version="1.0" encoding="utf-8"?>
<!-- Generator: Adobe Illustrator 17.0.0, SVG Export Plug-In . SVG Version: 6.00 Build 0)  -->
<!DOCTYPE svg PUBLIC "-//W3C//DTD SVG 1.1//EN" "http://www.w3.org/Graphics/SVG/1.1/DTD/svg11.dtd">
<svg version="1.1" id="Слой_1" xmlns="http://www.w3.org/2000/svg" xmlns:xlink="http://www.w3.org/1999/xlink" x="0px" y="0px"
	 width="120px" height="96px" viewBox="0 0 120 96" enable-background="new 0 0 120 96" xml:space="preserve">
<g>
	<path fill="#E6E6E6" d="M0,93.016c0,1.657,1.343,3,3,3h114c1.657,0,3-1.343,3-3v-90c0-1.657-1.343-3-3-3H3c-1.657,0-3,1.343-3,3
		V93.016z"/>
</g>
<path fill="#D8D8DA" d="M97.503,96h-4.144c-0.979-13.164-9.324-24.198-20.811-28.832c-3.651,1.799-7.726,2.836-12.048,2.836
	c-4.321,0-8.397-1.037-12.048-2.836C36.965,71.802,28.619,82.836,27.641,96h-4.144c0.883-13.52,8.863-25.06,20.201-30.902
	C37.374,60.063,33.3,52.27,33.3,43.5C33.3,28.312,45.478,16,60.501,16c15.022,0,27.2,12.312,27.2,27.5
	c0,8.77-4.075,16.563-10.398,21.598C88.64,70.94,96.62,82.48,97.503,96z M83.718,43.442c0-12.844-10.395-23.256-23.218-23.256
	S37.282,30.598,37.282,43.442S47.677,66.698,60.5,66.698S83.718,56.286,83.718,43.442z"/>
</svg>
