<?xml version="1.0" encoding="utf-8"?>
<!-- Generator: Adobe Illustrator 17.0.0, SVG Export Plug-In . SVG Version: 6.00 Build 0)  -->
<!DOCTYPE svg PUBLIC "-//W3C//DTD SVG 1.1//EN" "http://www.w3.org/Graphics/SVG/1.1/DTD/svg11.dtd">
<svg version="1.1" id="Слой_1" xmlns="http://www.w3.org/2000/svg" xmlns:xlink="http://www.w3.org/1999/xlink" x="0px" y="0px"
	 width="30px" height="30px" viewBox="0 0 30 30" enable-background="new 0 0 30 30" xml:space="preserve">
<g>
	<g>
		<path fill="#FFFFFF" d="M25.354,6.973h-7.688V5.439c0-1.621-1.319-2.94-2.939-2.94h-0.154c-1.621,0-2.94,1.319-2.94,2.94v1.533
			H3.646c-0.39,0-0.706,0.316-0.706,0.706s0.316,0.706,0.706,0.706h2.138v17.409c0,0.39,0.316,0.706,0.706,0.706h16.319
			c0.39,0,0.706-0.316,0.706-0.706V8.385h1.839c0.39,0,0.706-0.316,0.706-0.706C26.06,7.289,25.744,6.973,25.354,6.973z
			 M13.045,5.439c0-0.842,0.685-1.528,1.528-1.528h0.154c0.842,0,1.528,0.685,1.528,1.528v1.533h-3.21V5.439z M22.103,25.088H7.196
			V8.385h14.907V25.088z M10.607,21.702c0.312,0,0.565-0.253,0.565-0.565v-8.802c0-0.312-0.253-0.565-0.565-0.565
			c-0.312,0-0.565,0.253-0.565,0.565v8.802C10.043,21.449,10.295,21.702,10.607,21.702z M18.767,21.702
			c0.312,0,0.565-0.253,0.565-0.565v-8.802c0-0.312-0.253-0.565-0.565-0.565s-0.565,0.253-0.565,0.565v8.802
			C18.202,21.449,18.455,21.702,18.767,21.702z M14.65,21.702c0.312,0,0.565-0.253,0.565-0.565v-8.802
			c0-0.312-0.253-0.565-0.565-0.565c-0.312,0-0.565,0.253-0.565,0.565v8.802C14.085,21.449,14.338,21.702,14.65,21.702z"/>
	</g>
</g>
</svg>
